<svg width="41" height="41" viewBox="0 0 41 41" fill="none" xmlns="http://www.w3.org/2000/svg">
<rect x="1.10156" y="0.700195" width="39" height="39" rx="19.5" fill="white"/>
<path d="M17.3718 26.5171L17.3928 26.536C17.6816 26.7957 18.1216 26.7892 18.4027 26.5211L25.1857 20.0504C25.3342 19.9087 25.3397 19.6735 25.1981 19.5251C25.192 19.5187 25.1857 19.5126 25.1792 19.5066L18.2358 13.1931C17.9461 12.9297 17.5018 12.9363 17.22 13.2081L17.2064 13.2212C16.9401 13.4781 16.9325 13.9022 17.1894 14.1686C17.1994 14.179 17.2098 14.189 17.2204 14.1987L23.3798 19.8092L17.3579 25.5438C17.0927 25.7964 17.0824 26.2161 17.335 26.4813C17.3468 26.4937 17.3591 26.5057 17.3718 26.5171Z" fill="#067A46"/>
<rect x="1.10156" y="0.700195" width="39" height="39" rx="19.5" stroke="#067A46"/>
</svg>
